<?xml version="1.0" encoding="UTF-8"?>
<svg width="128px" height="32px" viewBox="0 0 128 32" version="1.1" xmlns="http://www.w3.org/2000/svg" xmlns:xlink="http://www.w3.org/1999/xlink">
    <title>Group 10</title>
    <defs>
        <polygon id="path-1" points="20 0 0 0 0 18 20 18"></polygon>
        <polygon id="path-3" points="11 0 0 0 0 11 11 11"></polygon>
        <radialGradient cx="50%" cy="0%" fx="50%" fy="0%" r="100%" id="radialGradient-5">
            <stop stop-color="#734CFF" offset="0%"></stop>
            <stop stop-color="#9646FF" offset="100%"></stop>
        </radialGradient>
        <linearGradient x1="50%" y1="0%" x2="50%" y2="100%" id="linearGradient-6">
            <stop stop-color="#744CFF" offset="0%"></stop>
            <stop stop-color="#9546FF" offset="100%"></stop>
        </linearGradient>
    </defs>
    <g id="Logo" stroke="none" stroke-width="1" fill="none" fill-rule="evenodd">
        <g id="Group-7" transform="translate(-12.000000, -18.000000)">
            <g id="Group-10" transform="translate(12.279196, 18.643208)">
                <g id="Group-3" transform="translate(14.972204, 15.844237) rotate(83.000000) translate(-14.972204, -15.844237) translate(1.537175, 2.409208)">
                    <g id="svg" transform="translate(13.435029, 13.435029) rotate(-45.000000) translate(-13.435029, -13.435029) translate(3.435029, 4.435029)">
                        <mask id="mask-2" fill="white">
                            <use xlink:href="#path-1"></use>
                        </mask>
                        <g id="Path"></g>
                    </g>
                    <rect id="Rectangle" fill="#000000" transform="translate(11.985291, 12.476800) rotate(-44.000000) translate(-11.985291, -12.476800) " x="10.9852915" y="4.97680014" width="2" height="15"></rect>
                </g>
                <path d="M30.2869858,20.25 C30.8703191,20.25 31.4703191,20.1416667 32.0869858,19.925 C32.7036524,19.7083333 33.1786524,19.35 33.5119858,18.85 L33.5619858,18.85 C33.1536524,19.55 33.1536524,19.9 33.5619858,19.9 C33.9703191,19.9 35.7119858,19.9 38.7869858,19.9 L38.7869858,12.975 C38.7869858,12.0583333 38.6911524,11.1916667 38.4994858,10.375 C38.3078191,9.55833333 37.9744858,8.84166667 37.4994858,8.225 C37.0244858,7.60833333 36.3786524,7.125 35.5619858,6.775 C34.7453191,6.425 33.7119858,6.25 32.4619858,6.25 C31.2953191,6.25 30.1619858,6.45833333 29.0619858,6.875 C27.9619858,7.29166667 27.2244858,7.70301696 26.4244858,8.46968363 C25.7137832,9.33095389 26.6012832,10.3410593 29.0869858,11.5 C29.4536524,11.2 29.8744858,10.9375 30.3494858,10.7125 C30.8244858,10.4875 31.3286524,10.375 31.8619858,10.375 C32.3119858,10.375 32.6744858,10.4708333 32.9494858,10.6625 C33.2244858,10.8541667 33.3619858,11.15 33.3619858,11.55 L33.3619858,11.6 C32.4953191,11.6 31.6078191,11.6583333 30.6994858,11.775 C29.7911524,11.8916667 28.9703191,12.1125 28.2369858,12.4375 C27.5036524,12.7625 26.8994858,13.2125 26.4244858,13.7875 C25.9494858,14.3625 25.7119858,15.1083333 25.7119858,16.025 C25.7119858,16.8083333 25.8536524,17.4666667 26.1369858,18 C26.4203191,18.5333333 26.7828191,18.9666667 27.2244858,19.3 C27.6661524,19.6333333 28.1578191,19.875 28.6994858,20.025 C29.2411524,20.175 29.7703191,20.25 30.2869858,20.25 Z M31.9119858,16.775 C31.7786524,16.775 31.6328191,16.7541667 31.4744858,16.7125 C31.3161524,16.6708333 31.1703191,16.6083333 31.0369858,16.525 C30.9036524,16.4416667 30.7953191,16.3375 30.7119858,16.2125 C30.6286524,16.0875 30.5869858,15.9333333 30.5869858,15.75 C30.5869858,15.25 30.8453191,14.9083333 31.3619858,14.725 C31.8786524,14.5416667 32.5619858,14.45 33.4119858,14.45 L33.4119858,14.45 L33.7369858,14.45 L33.7369858,14.9 C33.7369858,15.45 33.5703191,15.9 33.2369858,16.25 C32.9036524,16.6 32.4619858,16.775 31.9119858,16.775 Z M44.1119858,5.875 C44.5119858,5.875 44.8869858,5.8 45.2369858,5.65 C45.5869858,5.5 45.8994858,5.29583333 46.1744858,5.0375 C46.4494858,4.77916667 46.6661524,4.47083333 46.8244858,4.1125 C46.9828191,3.75416667 47.0619858,3.36666667 47.0619858,2.95 C47.0619858,2.55 46.9828191,2.17083333 46.8244858,1.8125 C46.6661524,1.45416667 46.4494858,1.14166667 46.1744858,0.875 C45.8994858,0.608333333 45.5869858,0.395833333 45.2369858,0.2375 C44.8869858,0.0791666667 44.5119858,0 44.1119858,0 C43.6953191,0 43.3036524,0.0791666667 42.9369858,0.2375 C42.5703191,0.395833333 42.2494858,0.608333333 41.9744858,0.875 C41.6994858,1.14166667 41.4828191,1.45416667 41.3244858,1.8125 C41.1661524,2.17083333 41.0869858,2.55 41.0869858,2.95 C41.0869858,3.36666667 41.1661524,3.75416667 41.3244858,4.1125 C41.4828191,4.47083333 41.6994858,4.77916667 41.9744858,5.0375 C42.2494858,5.29583333 42.5703191,5.5 42.9369858,5.65 C43.3036524,5.8 43.6953191,5.875 44.1119858,5.875 Z M46.9619858,17.9 L46.9619858,6.75 L46.9619858,6.75 L42.1869858,6.75 C41.634701,6.75 41.1869858,7.19771525 41.1869858,7.75 L41.1869858,19.9 L41.1869858,19.9 L44.9619858,19.9 C46.0665553,19.9 46.9619858,19.0045695 46.9619858,17.9 Z M54.2119858,19.9 L55.0869858,17.3 L60.7119858,17.3 L61.1639467,18.5703768 C61.4475568,19.3675511 62.2021275,19.9 63.048249,19.9 L68.1119858,19.9 L68.1119858,19.9 L61.2119858,2.2 L56.248538,2.2 C55.4269898,2.2 54.6890052,2.70240225 54.3878027,3.46674414 L47.9119858,19.9 L47.9119858,19.9 M59.3869858,12.75 L56.5119858,12.75 L57.9619858,8.375 L59.3869858,12.75 Z M74.7619858,23.9 L74.7619858,18.875 L74.7619858,18.875 L74.8119858,18.875 C75.2119858,19.3083333 75.7286524,19.6458333 76.3619858,19.8875 C76.9953191,20.1291667 77.6369858,20.25 78.2869858,20.25 C79.2703191,20.25 80.1328191,20.05 80.8744858,19.65 C81.6161524,19.25 82.2369858,18.7208333 82.7369858,18.0625 C83.2369858,17.4041667 83.6161524,16.6583333 83.8744858,15.825 C84.1328191,14.9916667 84.2619858,14.1416667 84.2619858,13.275 C84.2619858,12.425 84.1328191,11.5916667 83.8744858,10.775 C83.6161524,9.95833333 83.2369858,9.225 82.7369858,8.575 C82.2369858,7.925 81.6119858,7.4 80.8619858,7 C80.1119858,6.6 79.2453191,6.4 78.2619858,6.4 C77.6119858,6.4 76.9453191,6.54166667 76.2619858,6.825 C75.5786524,7.10833333 74.9953191,7.525 74.5119858,8.075 L74.4619858,8.075 L74.4619858,6.75 L71.0369858,6.75 C69.9324163,6.75 69.0369858,7.6454305 69.0369858,8.75 L69.0369858,25.9 L69.0369858,25.9 L72.7619858,25.9 C73.8665553,25.9 74.7619858,25.0045695 74.7619858,23.9 Z M76.7619858,15.5 C76.0786524,15.5 75.5328191,15.2833333 75.1244858,14.85 C74.7161524,14.4166667 74.5119858,13.8916667 74.5119858,13.275 C74.5119858,12.6916667 74.7161524,12.1833333 75.1244858,11.75 C75.5328191,11.3166667 76.0786524,11.1 76.7619858,11.1 C77.4619858,11.1 77.9953191,11.3166667 78.3619858,11.75 C78.7286524,12.1833333 78.9119858,12.6916667 78.9119858,13.275 C78.9119858,13.9083333 78.7286524,14.4375 78.3619858,14.8625 C77.9953191,15.2875 77.4619858,15.5 76.7619858,15.5 Z M92.1119858,23.9 L92.1119858,18.875 L92.1119858,18.875 L92.1619858,18.875 C92.5619858,19.3083333 93.0786524,19.6458333 93.7119858,19.8875 C94.3453191,20.1291667 94.9869858,20.25 95.6369858,20.25 C96.6203191,20.25 97.4828191,20.05 98.2244858,19.65 C98.9661524,19.25 99.5869858,18.7208333 100.086986,18.0625 C100.586986,17.4041667 100.966152,16.6583333 101.224486,15.825 C101.482819,14.9916667 101.611986,14.1416667 101.611986,13.275 C101.611986,12.425 101.482819,11.5916667 101.224486,10.775 C100.966152,9.95833333 100.586986,9.225 100.086986,8.575 C99.5869858,7.925 98.9619858,7.4 98.2119858,7 C97.4619858,6.6 96.5953191,6.4 95.6119858,6.4 C94.9619858,6.4 94.2953191,6.54166667 93.6119858,6.825 C92.9286524,7.10833333 92.3453191,7.525 91.8619858,8.075 L91.8119858,8.075 L91.8119858,6.75 L88.3869858,6.75 C87.2824163,6.75 86.3869858,7.6454305 86.3869858,8.75 L86.3869858,25.9 L86.3869858,25.9 L90.1119858,25.9 C91.2165553,25.9 92.1119858,25.0045695 92.1119858,23.9 Z M94.1119858,15.5 C93.4286524,15.5 92.8828191,15.2833333 92.4744858,14.85 C92.0661524,14.4166667 91.8619858,13.8916667 91.8619858,13.275 C91.8619858,12.6916667 92.0661524,12.1833333 92.4744858,11.75 C92.8828191,11.3166667 93.4286524,11.1 94.1119858,11.1 C94.8119858,11.1 95.3453191,11.3166667 95.7119858,11.75 C96.0786524,12.1833333 96.2619858,12.6916667 96.2619858,13.275 C96.2619858,13.9083333 96.0786524,14.4375 95.7119858,14.8625 C95.3453191,15.2875 94.8119858,15.5 94.1119858,15.5 Z M109.636986,17.9 L109.636986,1 L109.636986,1 L105.736986,1 C104.632416,1 103.736986,1.8954305 103.736986,3 L103.736986,19.9 L103.736986,19.9 L107.636986,19.9 C108.741555,19.9 109.636986,19.0045695 109.636986,17.9 Z M114.811986,25.9 C115.778652,25.9 116.624486,25.7833333 117.349486,25.55 C118.074486,25.3166667 118.703652,24.975 119.236986,24.525 C119.770319,24.075 120.236986,23.5291667 120.636986,22.8875 C121.036986,22.2458333 121.395319,21.5166667 121.711986,20.7 L127.111986,6.75 L122.499907,6.75 C121.581538,6.75 120.78119,7.37543987 120.55921,8.26657742 L119.211986,13.675 L119.211986,13.675 L119.111986,13.675 L117.161986,6.75 L112.267922,6.75 C111.715637,6.75 111.267922,7.19771525 111.267922,7.75 C111.267922,7.88325236 111.294553,8.01516091 111.346252,8.13797557 L116.086986,19.4 L116.086986,19.4 L115.986986,19.675 C115.836986,20.075 115.607819,20.4041667 115.299486,20.6625 C114.991152,20.9208333 114.520319,21.05 113.886986,21.05 C113.636986,21.05 113.357819,21.0208333 113.049486,20.9625 C112.741152,20.9041667 112.478652,20.8333333 112.261986,20.75 C111.261986,23.7928788 111.020319,25.3762122 111.536986,25.5 C112.311986,25.6856818 111.911986,25.5958333 112.161986,25.6375 C112.411986,25.6791667 112.682819,25.7208333 112.974486,25.7625 C113.266152,25.8041667 113.570319,25.8375 113.886986,25.8625 C114.203652,25.8875 114.511986,25.9 114.811986,25.9 Z" id="aiApply" fill="#141414" fill-rule="nonzero"></path>
                <g id="svg" transform="translate(22.432385, 5.951942) rotate(-1.000000) translate(-22.432385, -5.951942) translate(16.932385, 0.451942)">
                    <mask id="mask-4" fill="white">
                        <use xlink:href="#path-3"></use>
                    </mask>
                    <g id="Path"></g>
                    <path d="M6.09302965,10.114882 C6.41912772,10.114882 6.68634665,9.87508772 6.73161927,9.53569535 C7.17997288,6.51306895 7.59210838,6.09225948 10.4997595,5.76195758 C10.8348652,5.72122697 11.0930296,5.44070203 11.0930296,5.11490124 C11.0930296,4.78455522 10.8394146,4.51307662 10.5042646,4.46329967 C7.61476678,4.06059171 7.2570026,3.70764748 6.73161927,0.68954424 C6.67274277,0.354701521 6.41457837,0.114882045 6.09302965,0.114882045 C5.76243169,0.114882045 5.49971795,0.354701521 5.44539079,0.694067412 C5.00607405,3.71217506 4.59393854,4.13298894 1.69085447,4.46329967 C1.34665442,4.50857552 1.09302965,4.78005411 1.09302965,5.11490124 C1.09302965,5.44070203 1.33759547,5.71218062 1.68179995,5.76195758 C4.57582066,6.17372071 4.92908408,6.52211529 5.44539079,9.54024059 C5.51332182,9.87958883 5.7759914,10.114882 6.09302965,10.114882 Z" id="Path" fill="url(#radialGradient-5)" fill-rule="nonzero" mask="url(#mask-4)" transform="translate(6.093030, 5.114882) scale(1, -1) translate(-6.093030, -5.114882) "></path>
                </g>
                <path d="M18.7208043,3.62799637 C18.7860239,3.62799637 18.8394677,3.5800375 18.8485222,3.51215903 C18.9381929,2.90763375 19.02062,2.82347185 19.6021502,2.75741147 C19.6691714,2.74926535 19.7208043,2.69316036 19.7208043,2.62799637 C19.7208043,2.561931 19.6700813,2.50763528 19.6030513,2.49767989 C19.0251517,2.4171383 18.9535989,2.34654945 18.8485222,1.7429288 C18.8367469,1.67596026 18.785114,1.62799637 18.7208043,1.62799637 C18.6546847,1.62799637 18.6021419,1.67596026 18.5912765,1.74383344 C18.5034132,2.34745497 18.4209861,2.43161775 17.8403692,2.49767989 C17.7715292,2.50673506 17.7208043,2.56103078 17.7208043,2.62799637 C17.7208043,2.69316036 17.7697174,2.74745608 17.8385583,2.75741147 C18.4173625,2.8397641 18.4880152,2.90944301 18.5912765,3.51306807 C18.6048627,3.58093772 18.6573966,3.62799637 18.7208043,3.62799637 Z" id="Path" fill="url(#radialGradient-5)" fill-rule="nonzero"></path>
                <path d="M25.5172114,3.02781842 C25.603349,3.10269666 25.7289962,3.10071437 25.8188863,3.02145997 C26.6313757,2.32598943 26.8368671,2.30946813 27.6807625,2.88987619 C27.7786328,2.95606448 27.9112408,2.94124416 27.9860514,2.85518441 C28.0619056,2.76792406 28.0572507,2.63797818 27.9801513,2.54787232 C27.3882812,1.8685814 27.3081706,1.65212354 27.6782496,0.980063535 L27.8501454,0.684763721 L27.8501454,0.684763721 C27.9114801,0.582796308 27.8983539,0.460168508 27.813418,0.386334886 C27.7260904,0.310422157 27.6016275,0.313445572 27.5093517,0.390613877 C27.083252,0.757352586 26.8245638,0.935528547 26.5520381,0.937404979 C26.3071005,0.939091457 26.0509853,0.798365803 25.6521035,0.524131261 C25.5507873,0.457055358 25.4214557,0.470528494 25.3445678,0.558977812 C25.2697573,0.645037554 25.2720218,0.772905544 25.351513,0.865090504 C25.9426026,1.5474083 26.0225092,1.76248201 25.6507424,2.43274671 L25.4780875,2.72731595 L25.4780875,2.72731595 C25.41811,2.8325526 25.4334656,2.95501928 25.5172114,3.02781842 Z" id="Path" fill="url(#linearGradient-6)" fill-rule="nonzero"></path>
            </g>
        </g>
    </g>
</svg>